#!OML:ASF \\Waltz\H\Terrain\Patient Classification 1\Animal1\Tuesday\Animal1.ASF
:FULLY-SPECIFIED
:DEGREES
1708
root 14.6911 13.8363 1.66357 -332.484 41.93 3.45265
lowerback 32.1173 0.388522 -4.21727
upperback -0.922016 -0.977923 0.289614
thorax -17.9077 0.0109704 3.0529
lowerneck -12.6951 -3.14925 -7.50373
upperneck -7.04916 -2.70744 18.1285
head 0.482937 -0.933276 6.70562
rclavicle 2.9271e-014 -1.75427e-014
rhumerus 4.81287 20.4448 -82.9581
rradius 135.789
rwrist -66.5597
rhand -16.2925 25.2633
rfingers 7.12502
rthumb 9.91797 -4.48309
lclavicle 2.9271e-014 -1.75427e-014
lhumerus 19.5246 -24.2743 83.3481
lradius 132.745
lwrist 5.90578
lhand 1.96216 48.6274
lfingers 7.12502
lthumb 27.4684 76.6443
rfemur -70.7344 6.74022 11.4047
rtibia 102.592
rfoot 10.6164 0.294881
rtoes -28.4829
lfemur -84.3661 -14.1657 -4.71393
ltibia 68.1151
lfoot -16.2096 -14.5514
ltoes -2.10159
1709
root 14.6893 13.8449 1.66798 -332.468 41.8407 3.70884
lowerback 32.2885 0.501481 -4.43786
upperback -0.691215 -0.927396 0.198157
thorax -17.7012 0.0394625 3.04415
lowerneck -12.9918 -3.21807 -7.33941
upperneck -6.92551 -2.82022 18.3739
head 0.587283 -0.969849 6.74821
rclavicle -8.45301e-015 1.13835e-014
rhumerus 1.23081 21.2608 -83.7827
rradius 135.465
rwrist -65.9063
rhand -17.0978 24.9083
rfingers 7.12502
rthumb 9.14098 -4.87356
lclavicle -8.45301e-015 1.13835e-014
lhumerus 17.2485 -25.0589 82.7805
lradius 130.57
lwrist 4.05933
lhand 2.1196 48.9285
lfingers 7.12502
lthumb 27.619 76.9214
rfemur -70.717 6.74393 11.1931
rtibia 102.642
rfoot 10.7333 -0.558501
rtoes -24.6164
lfemur -84.0574 -14.2401 -5.02986
ltibia 67.9636
lfoot -16.2307 -14.5519
ltoes -2.28806
1710
root 14.6902 13.8581 1.67483 -332.404 41.7716 4.07175
lowerback 32.4072 0.644932 -4.67828
upperback -0.363633 -0.843506 0.0692513
thorax -17.3552 0.076573 2.98745
lowerneck -13.2932 -3.30864 -7.17759
upperneck -7.11309 -2.91475 18.6329
head 0.600689 -1.00614 6.79956
rclavicle 1.20575e-014 -9.39258e-015
rhumerus -2.48479 21.6786 -84.7194
rradius 134.795
rwrist -64.0664
rhand -19.1821 25.0204
rfingers 7.12502
rthumb 7.12938 -4.83954
lclavicle 1.20575e-014 -9.39258e-015
lhumerus 14.6689 -26.2465 82.2974
lradius 128.774
lwrist 0.770573
lhand 2.50443 50.2381
lfingers 7.12502
lthumb 27.9869 78.1716
rfemur -70.5874 6.69567 10.8686
rtibia 102.658
rfoot 10.641 -1.17355
rtoes -21.0064
lfemur -83.734 -14.3963 -5.33784
ltibia 67.8544
lfoot -16.4004 -14.5085
ltoes -2.92275
1711
root 14.6904 13.8661 1.6813 -332.43 41.7587 4.26788
lowerback 32.5127 0.770905 -4.82456
upperback 0.0296441 -0.727441 0.0192522
thorax -16.9291 0.120089 2.95289
lowerneck -13.5554 -3.37065 -7.02785
upperneck -7.59037 -2.92647 18.8047
head 0.509891 -1.01434 6.83269
rclavicle -4.12975e-014 1.51822e-014
rhumerus -6.20488 21.6097 -85.7244
rradius 133.744
rwrist -61.3121
rhand -21.5305 25.5627
rfingers 7.12502
rthumb 4.86208 -4.3615
lclavicle -4.12975e-014 1.51822e-014
lhumerus 11.9666 -27.5469 82.0165
lradius 127.188
lwrist -4.9255
lhand 3.36018 51.6056
lfingers 7.12502
lthumb 28.8047 79.4028
rfemur -70.3563 6.65445 10.7724
rtibia 102.721
rfoot 10.559 -0.830127
rtoes -22.5269
lfemur -83.4802 -14.4558 -5.55444
ltibia 67.8167
lfoot -16.4564 -14.4998
ltoes -2.85708
1712
root 14.6883 13.8641 1.68402 -332.508 41.7366 4.3599
lowerback 32.9579 0.92481 -5.00543
upperback 0.244932 -0.591277 0.113381
thorax -16.8725 0.193955 3.0926
lowerneck -14.148 -3.44434 -7.10399
upperneck -7.72869 -2.96325 18.9883
head 0.577629 -1.00045 6.90452
rclavicle -9.10931e-014 8.56762e-014
rhumerus -9.857 20.8937 -86.5366
rradius 132.304
rwrist -58.3782
rhand -22.8242 25.3768
rfingers 7.12502
rthumb 3.61288 -4.57228
lclavicle -9.10931e-014 8.56762e-014
lhumerus 8.98828 -28.4831 82.4793
lradius 125.216
lwrist -12.5708
lhand 4.70746 51.7614
lfingers 7.12502
lthumb 30.0909 79.3321
rfemur -70.2476 6.5996 10.7488
rtibia 102.821
rfoot 10.5648 -0.171222
rtoes -25.5178
lfemur -83.2741 -14.4498 -5.76878
ltibia 67.755
lfoot -16.344 -14.477
ltoes -2.6366
1713
root 14.6853 13.8584 1.68209 -332.605 41.7954 4.28987
lowerback 33.3059 0.887688 -4.81899
upperback 0.561041 -0.572784 0.0849108
thorax -16.6462 0.177539 2.94624
lowerneck -14.4458 -3.50764 -7.35222
upperneck -8.34505 -2.88592 19.4818
head 0.461234 -0.953382 7.12063
rclavicle 2.1419e-014 -2.3059e-014
rhumerus -12.6821 19.7755 -87.4158
rradius 130.314
rwrist -54.6606
rhand -22.8566 25.4282
rfingers 7.12502
rthumb 3.58161 -4.52145
lclavicle 2.1419e-014 -2.3059e-014
lhumerus 6.17864 -29.0595 82.7673
lradius 123.156
lwrist -21.0507
lhand 5.15904 51.2243
lfingers 7.12502
lthumb 30.5217 78.7158
rfemur -70.356 6.59954 10.7074
rtibia 102.86
rfoot 10.6252 -0.26156
rtoes -24.0802
lfemur -83.2729 -14.4489 -5.72553
ltibia 67.7194
lfoot -16.2353 -14.5392
ltoes -2.82074
1714
root 14.6741 13.8583 1.67027 -332.815 42.385 4.23272
lowerback 34.2328 0.54303 -4.31541
upperback 0.772 -0.835743 0.168638
thorax -16.7787 0.0360126 2.88035
lowerneck -14.6237 -3.48889 -7.43559
upperneck -9.0846 -2.70846 19.7156
head 0.262257 -0.875437 7.232
rclavicle -3.02401e-014 -8.19987e-016
rhumerus -15.2249 18.8486 -88.4776
rradius 127.964
rwrist -48.9537
rhand -22.3825 26.5949
rfingers 7.12502
rthumb 4.03941 -3.34653
lclavicle -3.02401e-014 -8.19987e-016
lhumerus 2.98875 -29.037 83.4885
lradius 121.563
lwrist -29.7604
lhand 5.63621 50.6352
lfingers 7.12502
lthumb 30.9766 78.0411
rfemur -70.2102 6.21739 10.8343
rtibia 102.838
rfoot 10.6118 -0.833791
rtoes -18.4334
lfemur -83.3325 -14.8764 -5.42791
ltibia 67.6284
lfoot -16.0118 -14.726
ltoes -2.38502
